<?xml version="1.0" encoding="UTF-8" standalone="no"?>
<svg width="90px" height="43px" viewBox="0 0 90 43" version="1.1" xmlns="http://www.w3.org/2000/svg" xmlns:xlink="http://www.w3.org/1999/xlink">
    <!-- Generator: Sketch 3.6.1 (26313) - http://www.bohemiancoding.com/sketch -->
    <title>Group</title>
    <desc>Created with Sketch.</desc>
    <defs></defs>
    <g id="Page-1" stroke="none" stroke-width="1" fill="none" fill-rule="evenodd">
        <g id="Group">
            <path d="M7.448,8.256 C7.448,7.416 7.168,6.758 6.608,6.282 C6.202,5.904 5.726,5.708 4.788,5.582 L3.696,5.414 C3.178,5.316 2.674,5.134 2.352,4.868 C2.058,4.602 1.904,4.224 1.904,3.72 C1.904,2.6 2.66,1.872 4.004,1.872 C5.068,1.872 5.712,2.166 6.328,2.726 L7.014,2.04 C6.16,1.27 5.32,0.948 4.046,0.948 C2.086,0.948 0.854,2.068 0.854,3.762 C0.854,4.56 1.106,5.176 1.61,5.624 C2.044,6.002 2.646,6.254 3.444,6.38 L4.606,6.562 C5.334,6.674 5.586,6.758 5.908,7.038 C6.23,7.318 6.384,7.766 6.384,8.284 C6.384,9.46 5.488,10.132 4.032,10.132 C2.912,10.132 2.142,9.866 1.316,9.04 L0.588,9.768 C1.526,10.706 2.506,11.084 4.004,11.084 C6.076,11.084 7.448,10.006 7.448,8.256 L7.448,8.256 Z M15.74,8.116 L14.676,8.116 C14.41,9.348 13.528,10.132 12.282,10.132 C11.624,10.132 10.994,9.88 10.56,9.432 C9.916,8.788 9.86,8.102 9.86,6.016 C9.86,3.93 9.916,3.244 10.56,2.6 C10.994,2.152 11.624,1.9 12.282,1.9 C13.528,1.9 14.382,2.684 14.648,3.916 L15.74,3.916 C15.404,2.054 14.074,0.948 12.282,0.948 C11.288,0.948 10.406,1.312 9.734,1.984 C8.796,2.922 8.796,3.902 8.796,6.016 C8.796,8.13 8.796,9.11 9.734,10.048 C10.406,10.72 11.288,11.084 12.282,11.084 C14.074,11.084 15.404,9.978 15.74,8.116 L15.74,8.116 Z M23.304,3.818 C23.304,5.05 22.492,5.638 21.316,5.638 L18.656,5.638 L18.656,1.984 L21.316,1.984 C22.492,1.984 23.304,2.586 23.304,3.818 L23.304,3.818 Z M23.318,11 L24.564,11 L22.198,6.478 C23.486,6.212 24.368,5.26 24.368,3.804 C24.368,2.068 23.15,1.032 21.414,1.032 L17.592,1.032 L17.592,11 L18.656,11 L18.656,6.576 L21.05,6.576 L23.318,11 Z M31.806,6.016 C31.806,8.102 31.75,8.774 31.106,9.418 C30.672,9.866 30.042,10.132 29.384,10.132 C28.726,10.132 28.096,9.866 27.662,9.418 C27.018,8.774 26.962,8.102 26.962,6.016 C26.962,3.93 27.018,3.258 27.662,2.614 C28.096,2.166 28.726,1.9 29.384,1.9 C30.042,1.9 30.672,2.166 31.106,2.614 C31.75,3.258 31.806,3.93 31.806,6.016 L31.806,6.016 Z M32.87,6.016 C32.87,3.902 32.87,2.922 31.932,1.984 C31.246,1.298 30.392,0.948 29.384,0.948 C28.376,0.948 27.522,1.298 26.836,1.984 C25.898,2.922 25.898,3.902 25.898,6.016 C25.898,8.13 25.898,9.11 26.836,10.048 C27.522,10.734 28.376,11.084 29.384,11.084 C30.392,11.084 31.26,10.72 31.932,10.048 C32.87,9.11 32.87,8.13 32.87,6.016 L32.87,6.016 Z M34.876,11 L41.036,11 L41.036,10.048 L35.94,10.048 L35.94,1.032 L34.876,1.032 L34.876,11 Z M42.398,11 L48.558,11 L48.558,10.048 L43.462,10.048 L43.462,1.032 L42.398,1.032 L42.398,11 Z M58.758,5.904 C58.758,7.136 58.786,8.592 58.1,9.32 C57.582,9.866 56.924,10.048 56.14,10.048 L53.97,10.048 L53.97,1.984 L56.14,1.984 C56.924,1.984 57.582,2.166 58.1,2.712 C58.786,3.44 58.758,4.672 58.758,5.904 L58.758,5.904 Z M59.822,5.904 C59.822,4.504 59.892,3.006 58.842,1.956 C58.24,1.354 57.372,1.032 56.322,1.032 L52.906,1.032 L52.906,11 L56.322,11 C57.372,11 58.24,10.678 58.842,10.076 C59.892,9.026 59.822,7.304 59.822,5.904 L59.822,5.904 Z M67.358,6.016 C67.358,8.102 67.302,8.774 66.658,9.418 C66.224,9.866 65.594,10.132 64.936,10.132 C64.278,10.132 63.648,9.866 63.214,9.418 C62.57,8.774 62.514,8.102 62.514,6.016 C62.514,3.93 62.57,3.258 63.214,2.614 C63.648,2.166 64.278,1.9 64.936,1.9 C65.594,1.9 66.224,2.166 66.658,2.614 C67.302,3.258 67.358,3.93 67.358,6.016 L67.358,6.016 Z M68.422,6.016 C68.422,3.902 68.422,2.922 67.484,1.984 C66.798,1.298 65.944,0.948 64.936,0.948 C63.928,0.948 63.074,1.298 62.388,1.984 C61.45,2.922 61.45,3.902 61.45,6.016 C61.45,8.13 61.45,9.11 62.388,10.048 C63.074,10.734 63.928,11.084 64.936,11.084 C65.944,11.084 66.812,10.72 67.484,10.048 C68.422,9.11 68.422,8.13 68.422,6.016 L68.422,6.016 Z M78.03,11 L80.578,1.032 L79.444,1.032 L77.498,9.068 L75.3,1.032 L74.348,1.032 L72.15,9.068 L70.204,1.032 L69.07,1.032 L71.618,11 L72.612,11 L74.824,3.02 L77.036,11 L78.03,11 Z M88.1,11 L89.108,11 L89.108,1.032 L88.044,1.032 L88.044,8.998 L82.752,1.032 L81.744,1.032 L81.744,11 L82.808,11 L82.808,3.006 L88.1,11 Z" id="SCROLL-DOWN" fill="#FFFFFF"></path>
            <path d="M60.0909091,42.5479273 L45.544,28.0010182" id="Stroke-1" stroke="#FFFFFF" transform="translate(52.817455, 35.274473) rotate(-90.000000) translate(-52.817455, -35.274473) "></path>
            <path d="M45.5469091,28.0032 L31,42.5501091" id="Stroke-2" stroke="#FFFFFF" transform="translate(38.273455, 35.276655) rotate(-90.000000) translate(-38.273455, -35.276655) "></path>
        </g>
    </g>
</svg>