<?xml version="1.0" encoding="UTF-8"?>
<svg width="789px" height="135px" viewBox="0 0 789 135" version="1.1" xmlns="http://www.w3.org/2000/svg" xmlns:xlink="http://www.w3.org/1999/xlink">
    <!-- Generator: Sketch 41.2 (35397) - http://www.bohemiancoding.com/sketch -->
    <title>Page 1</title>
    <desc>Created with Sketch.</desc>
    <defs>
        <polygon id="path-1" points="53.3534624 0.0246524823 0.742824113 0.0246524823 0.742824113 129.208926 53.3534624 129.208926 53.3534624 0.0246524823"></polygon>
        <polygon id="path-3" points="0.0940156028 82.9219858 79.8279872 82.9219858 79.8279872 0.41595461 0.0940156028 0.41595461"></polygon>
        <polygon id="path-5" points="56.1460284 82.1413986 56.1460284 0.435228369 0.976798582 0.435228369 0.976798582 82.1413986 56.1460284 82.1413986"></polygon>
    </defs>
    <g id="1.feed" stroke="none" stroke-width="1" fill="none" fill-rule="evenodd">
        <g id="Page-1" transform="translate(0.000000, -1.000000)">
            <polygon id="Fill-1" fill="#FFFFFF" points="7.98740426 32.1210638 7.98740426 57.9579858 0 57.9579858 0 64.539078 7.98740426 64.539078 7.98740426 130.305177 15.0447376 130.305177 15.0447376 64.539078 27.7082695 64.539078 27.7082695 57.9579858 15.0447376 57.9579858 15.0447376 32.1210638"></polygon>
            <g id="Group-25" transform="translate(44.822695, 1.095915)">
                <g id="Group-4">
                    <mask id="mask-2" fill="white">
                        <use xlink:href="#path-1"></use>
                    </mask>
                    <g id="Clip-3"></g>
                    <path d="M7.79231348,0.0243163121 L7.79231348,68.133522 L8.1004695,68.133522 C12.3227674,60.1461177 20.1510511,55.2895787 29.5514908,55.2895787 C48.1842851,55.2895787 53.3534624,66.8784865 53.3534624,85.5269688 L53.3534624,129.208926 L46.3050936,129.208926 L46.3050936,85.5269688 C46.3050936,72.5205433 44.7374199,61.8673092 28.9306965,61.8673092 C10.7595759,61.8673092 7.79231348,78.7845149 7.79231348,93.5098908 L7.79231348,129.208926 L0.742824113,129.208926 L0.742824113,0.0243163121 L7.79231348,0.0243163121 Z" id="Fill-2" fill="#FFFFFF" mask="url(#mask-2)"></path>
                </g>
                <path d="M133.082279,87.0832128 C131.356606,73.7775957 120.397457,61.8682057 105.519684,61.8682057 C90.8055135,61.8682057 78.5778823,73.4537518 77.3418965,87.0832128 L133.082279,87.0832128 Z M77.3418965,93.656461 C76.8656553,111.977738 89.5459957,124.190801 106.32201,124.190801 C117.589315,124.190801 126.658067,117.459553 131.822762,107.744234 L137.785301,111.203426 C131.210932,123.735851 119.61418,130.776376 105.370648,130.776376 C83.9061801,130.776376 70.2924071,113.390773 70.2924071,92.8687021 C70.2924071,72.6749574 84.2188184,55.2893546 105.370648,55.2893546 C127.278861,55.2893546 140.280804,72.8329574 140.127287,93.656461 L77.3418965,93.656461 Z" id="Fill-5" fill="#FFFFFF"></path>
                <g id="Group-9" transform="translate(151.276596, 51.546099)">
                    <mask id="mask-4" fill="white">
                        <use xlink:href="#path-3"></use>
                    </mask>
                    <g id="Clip-8"></g>
                    <polygon id="Fill-7" fill="#FFFFFF" mask="url(#mask-4)" points="20.091661 0.41595461 39.8024411 43.805444 59.7586255 0.41595461 79.8279872 0.41595461 39.8114057 82.9222099 0.0940156028 0.41595461"></polygon>
                </g>
                <path d="M292.576332,80.2628794 C290.10324,70.6091915 284.086913,65.7929929 274.573296,65.7929929 C272.40724,65.7929929 270.37341,66.1325248 268.475169,66.8037447 C266.563481,67.4648794 264.82436,68.4431348 263.270133,69.6936879 C261.711424,70.9576879 260.374587,72.4659716 259.265226,74.2308652 C258.154743,76.0047234 257.29863,78.002695 256.723779,80.2628794 L292.576332,80.2628794 Z M310.909935,94.8918865 L255.54158,94.8918865 C256.007736,101.170426 258.074062,106.180482 261.715906,109.892922 C265.372318,113.549333 270.042843,115.393787 275.759977,115.393787 C280.199665,115.393787 283.887452,114.342695 286.795325,112.244993 C289.644928,110.147291 292.897935,106.269007 296.548743,100.602298 L311.617013,109.018879 C309.297438,112.981206 306.833311,116.376525 304.241438,119.201475 C301.646204,122.018582 298.873921,124.351603 295.906658,126.178128 C292.951722,128.003532 289.759226,129.335887 286.31124,130.185277 C282.881183,131.027943 279.148573,131.445915 275.125736,131.445915 C263.596218,131.445915 254.340332,127.733475 247.368162,120.326525 C240.382545,112.869149 236.880772,102.959972 236.880772,90.6370922 C236.880772,78.409461 240.269367,68.504766 247.046559,60.9454184 C253.874176,53.4701135 262.912672,49.7397447 274.178857,49.7397447 C285.540289,49.7397447 294.542928,53.3726241 301.152034,60.6417447 C307.698389,67.8615603 310.987254,77.8637447 310.987254,90.6718298 L310.909935,94.8918865 Z" id="Fill-10" fill="#FFFFFF"></path>
                <polygon id="Fill-12" fill="#FFFFFF" points="436.332016 68.6541376 436.332016 129.224166 418.528441 129.224166 418.528441 68.6541376 410.907462 68.6541376 410.907462 51.962166 418.528441 51.962166 418.528441 23.6588752 436.332016 23.6588752 436.332016 51.962166 450.221448 51.962166 450.221448 68.6541376"></polygon>
                <path d="M484.126567,51.9620539 L484.126567,96.2345504 C484.126567,109.01238 489.18705,115.392891 499.312496,115.392891 C509.423376,115.392891 514.48834,109.01238 514.48834,96.2345504 L514.48834,51.9620539 L532.297518,51.9620539 L532.297518,96.7007064 C532.297518,102.896323 531.523206,108.240309 529.995872,112.731543 C528.505518,116.745416 525.959589,120.36933 522.30766,123.602167 C516.277887,128.828494 508.613206,131.446139 499.312496,131.446139 C490.061092,131.446139 482.423305,128.828494 476.38905,123.602167 C472.692298,120.36933 470.060085,116.745416 468.533872,112.731543 C467.070411,109.136763 466.322993,103.786054 466.322993,96.7007064 L466.322993,51.9620539 L484.126567,51.9620539 Z" id="Fill-14" fill="#FFFFFF"></path>
                <path d="M377.365295,129.224166 L377.365295,84.9628752 C377.365295,72.1693574 372.304813,65.7933291 362.174884,65.7933291 C352.068487,65.7933291 347.003522,72.1693574 347.003522,84.9628752 L347.003522,129.224166 L329.198827,129.224166 L329.198827,84.4832723 C329.198827,78.298861 329.965295,72.9515135 331.491508,68.4569177 C332.968416,64.4408043 335.541238,60.8191305 339.188685,57.5840525 C345.213976,52.3454 352.878657,49.7400809 362.174884,49.7400809 C371.43077,49.7400809 379.068557,52.3454 385.093848,57.5840525 C388.795082,60.8191305 391.409366,64.4408043 392.950146,68.4569177 C394.436018,72.053939 395.174472,77.3867191 395.174472,84.4832723 L395.174472,129.224166 L377.365295,129.224166 Z" id="Fill-16" fill="#FFFFFF"></path>
                <path d="M599.155498,54.3385532 C596.645427,52.839234 594.208193,51.7040993 591.798973,50.9499574 C589.274335,50.1476312 586.810207,49.7397447 584.390902,49.7397447 C584.002065,49.7397447 583.607626,49.7464681 583.236718,49.7677589 C582.715654,49.7464681 582.172179,49.7397447 581.651115,49.7397447 C575.983285,49.7397447 570.918321,50.7067943 566.460704,52.6509787 C563.615583,53.8948085 561.005782,55.5431631 558.659313,57.5848369 C555.016349,60.8187943 552.439044,64.4415887 550.966618,68.4565816 C549.430321,72.9511773 548.669455,78.2996454 548.669455,84.4829362 L548.669455,129.22383 L566.460704,129.22383 L566.460704,89.1176028 C566.460704,74.4034326 571.335172,67.0547518 581.061696,67.0547518 C584.296774,67.0547518 587.599087,68.2739291 590.987682,70.708922 L599.155498,54.3385532 Z" id="Fill-18" fill="#FFFFFF"></path>
                <path d="M659.177681,80.2628794 C656.698986,70.6091915 650.692745,65.7929929 641.179128,65.7929929 C638.999624,65.7929929 636.979241,66.1325248 635.072035,66.8037447 C633.155865,67.4648794 631.433553,68.4431348 629.875965,69.6936879 C628.312773,70.9576879 626.980418,72.4659716 625.875539,74.2308652 C624.75161,76.0047234 623.908943,78.002695 623.325128,80.2628794 L659.177681,80.2628794 Z M677.515766,94.8918865 L622.142929,94.8918865 C622.609085,101.170426 624.675411,106.180482 628.32622,109.892922 C631.982631,113.549333 636.639709,115.393787 642.365809,115.393787 C646.809979,115.393787 650.488801,114.342695 653.396674,112.244993 C656.250759,110.147291 659.503766,106.269007 663.150092,100.602298 L678.222844,109.018879 C675.90327,112.981206 673.43466,116.376525 670.851752,119.201475 C668.261,122.018582 665.483113,124.351603 662.521454,126.178128 C659.549709,128.003532 656.350489,129.335887 652.917071,130.185277 C649.473567,131.027943 645.749922,131.445915 641.740532,131.445915 C630.197567,131.445915 620.955128,127.733475 613.973993,120.326525 C606.979411,112.869149 603.50005,102.959972 603.50005,90.6370922 C603.50005,78.409461 606.879681,68.504766 613.65239,60.9454184 C620.471043,53.4701135 629.512901,49.7397447 640.784688,49.7397447 C652.150603,49.7397447 661.157723,53.3726241 667.753383,60.6417447 C674.317667,67.8615603 677.597567,77.8637447 677.597567,90.6718298 L677.515766,94.8918865 Z" id="Fill-20" fill="#FFFFFF"></path>
                <g id="Group-24" transform="translate(688.028369, 49.304965)">
                    <mask id="mask-6" fill="white">
                        <use xlink:href="#path-5"></use>
                    </mask>
                    <g id="Clip-23"></g>
                    <path d="M51.1726142,15.7701929 L36.4035362,23.646661 C34.0839617,18.8741645 31.2074652,16.4884766 27.7650823,16.4884766 C26.1200894,16.4884766 24.7193801,17.0297106 23.5551106,18.1121787 C22.3953234,19.2002496 21.8159901,20.5931149 21.8159901,22.2851716 C21.8159901,25.2479518 25.2449262,28.1916823 32.1184865,31.1051574 C41.5861603,35.1716965 47.9599475,38.9155121 51.2308837,42.3769447 C54.5107844,45.8193277 56.1468128,50.4450298 56.1468128,56.261895 C56.1468128,63.7304766 53.3924582,69.9843631 47.8792667,75.0078667 C42.5330397,79.7590723 36.0774511,82.1413986 28.5024156,82.1413986 C15.5553801,82.1413986 6.38129504,75.8191574 0.976798582,63.1455404 L16.2120326,56.0713986 C18.3186993,59.761427 19.9412809,62.0944482 21.0551248,63.0827887 C23.2155787,65.0852426 25.8074511,66.0881504 28.8296213,66.0881504 C34.844827,66.0881504 37.8669972,63.338278 37.8669972,57.8318099 C37.8669972,54.6695688 35.551905,51.7157532 30.912756,48.9636397 C29.1142454,48.0649447 27.320217,47.188661 25.5261887,46.349356 C23.7366426,45.4932426 21.9112383,44.6192 20.067905,43.7294695 C14.9076922,41.192505 11.2557631,38.6532993 9.14909645,36.1096113 C6.45861418,32.8991858 5.11281277,28.7452426 5.11281277,23.6556255 C5.11281277,16.9523915 7.40997589,11.4033418 11.9986993,7.0084766 C16.7062028,2.62817872 22.4054085,0.435228369 29.1052809,0.435228369 C38.9998908,0.435228369 46.3474511,5.5450156 51.1726142,15.7701929" id="Fill-22" fill="#FFFFFF" mask="url(#mask-6)"></path>
                </g>
            </g>
        </g>
    </g>
</svg>